<!-- Generated by IcoMoon.io -->
<svg version="1.1" xmlns="http://www.w3.org/2000/svg" width="32" height="32" viewBox="0 0 32 32">
<title>book-call</title>
<path d="M22.837 13.718c0.172-0.978 0.111-1.983-0.177-2.933l-0.342-1.127c-0.435-1.28-1.825-1.965-3.105-1.53-0.72 0.245-1.286 0.81-1.531 1.53l-0.343 1.127c-0.288 0.951-0.349 1.955-0.177 2.933 0.157 0.823 0.68 1.531 1.421 1.923l-0.383 8.573c-0.051 0.479 0.104 0.956 0.427 1.313 0.694 0.759 1.873 0.812 2.632 0.118 0.041-0.037 0.081-0.077 0.118-0.118 0.315-0.347 0.471-0.811 0.427-1.277l-0.386-8.609c0.74-0.392 1.262-1.099 1.419-1.922zM21.786 13.533c-0.115 0.592-0.537 1.077-1.107 1.274-0.216 0.081-0.355 0.293-0.345 0.523l0.406 9.003c0.019 0.177-0.040 0.353-0.16 0.483-0.321 0.318-0.839 0.318-1.159 0-0.127-0.141-0.184-0.331-0.157-0.518l0.402-8.968c0.011-0.231-0.129-0.442-0.345-0.523-0.569-0.197-0.991-0.683-1.107-1.274-0.143-0.812-0.093-1.646 0.147-2.435l0.343-1.127c0.265-0.716 1.061-1.082 1.777-0.817 0.379 0.14 0.677 0.439 0.817 0.817l0.343 1.127c0.238 0.789 0.289 1.623 0.146 2.435zM14.777 13.71c0.1-0.1 0.156-0.235 0.156-0.377v-4.8c0-0.295-0.239-0.533-0.533-0.533s-0.533 0.239-0.533 0.533v4.579l-1.443 1.444c-0.107 0.106-0.163 0.253-0.156 0.403l0.467 9.333c0.011 0.201-0.062 0.398-0.201 0.543-0.292 0.295-0.767 0.297-1.062 0.005-0.001-0.001-0.003-0.003-0.005-0.005-0.14-0.145-0.213-0.342-0.201-0.543l0.47-9.333c0.007-0.151-0.049-0.297-0.156-0.403l-1.445-1.443v-4.579c0-0.295-0.239-0.533-0.533-0.533s-0.533 0.239-0.533 0.533v4.8c0 0.141 0.056 0.277 0.156 0.377l1.433 1.433-0.455 9.099c-0.048 0.994 0.718 1.839 1.712 1.887s1.839-0.718 1.887-1.712c0.003-0.058 0.003-0.117 0-0.175l-0.455-9.099 1.432-1.433zM11.2 13.333c0.295 0 0.533-0.239 0.533-0.533v-4.267c0-0.295-0.239-0.533-0.533-0.533s-0.533 0.239-0.533 0.533v4.267c0 0.295 0.239 0.533 0.533 0.533zM12.267 8.533v4.267c0 0.295 0.239 0.533 0.533 0.533s0.533-0.239 0.533-0.533v-4.267c0-0.295-0.239-0.533-0.533-0.533s-0.533 0.239-0.533 0.533zM16 0c-8.837 0-16 7.163-16 16s7.163 16 16 16c8.837 0 16-7.164 16-16-0.010-8.833-7.168-15.99-16-16zM16 30.933c-8.247 0-14.933-6.686-14.933-14.933s6.686-14.933 14.933-14.933c8.247 0 14.933 6.686 14.933 14.933-0.009 8.243-6.69 14.924-14.933 14.933zM17.149 25.533c-0.007 0.001-0.014 0.001-0.021 0.003l0.002-0.001c-0.751 0.087-1.509 0.087-2.261 0-0.293-0.034-0.557 0.175-0.592 0.468s0.175 0.558 0.467 0.592c0.833 0.097 1.674 0.097 2.507 0 0.293-0.029 0.507-0.289 0.479-0.583-0.027-0.294-0.288-0.508-0.581-0.479zM24.16 9.127c-0.189-0.226-0.526-0.255-0.751-0.066-0.001 0.001-0.001 0.001-0.002 0.002-0.225 0.19-0.254 0.526-0.064 0.752 3.216 3.817 2.97 9.462-0.566 12.985-0.209 0.208-0.209 0.546-0.001 0.755s0.545 0.209 0.755 0.001c3.929-3.915 4.203-10.187 0.63-14.429zM12.426 7.050c-0.001 0-0.001 0-0.001 0s-0.001 0-0.001 0h0.003zM12.425 7.050c0.064-0.001 0.127-0.013 0.187-0.035 1.808-0.676 3.777-0.797 5.653-0.347 0.286 0.069 0.575-0.107 0.644-0.393s-0.107-0.575-0.393-0.644c-2.084-0.499-4.271-0.365-6.278 0.386-0.276 0.103-0.415 0.411-0.311 0.687 0.078 0.209 0.276 0.346 0.498 0.347zM6.4 16c-0.005-2.030 0.637-4.008 1.835-5.647 0.177-0.235 0.129-0.57-0.106-0.747s-0.57-0.129-0.747 0.106c-0.003 0.005-0.006 0.009-0.009 0.013-3.083 4.239-2.63 10.091 1.071 13.804 0.209 0.209 0.547 0.209 0.755 0s0.209-0.547 0-0.756c-1.798-1.794-2.805-4.232-2.799-6.773z"></path>
</svg>
